<?xml version="1.0" encoding="utf-8"?><!DOCTYPE svg PUBLIC "-//W3C//DTD SVG 1.1//EN" "http://www.w3.org/Graphics/SVG/1.1/DTD/svg11.dtd"><svg version="1.1" id="Contours" xmlns="http://www.w3.org/2000/svg" xmlns:xlink="http://www.w3.org/1999/xlink" x="0px" y="0px" width="749.921631px" height="749.921631px" viewBox="-0.000017 -0.000015 749.921631 1184.200562" enable-background="new 0 0 749.921631 749.921631" xml:space="preserve" stroke="black" fill="none" stroke-linecap='round' stroke-linejoin='round'><path class="selected"  fill="#000000" opacity="1.000000" stroke="none" 
 	d="
M327.011456 171.524006 C338.202040 149.371107 318.615041 118.571361 293.807136 119.311585 C278.602459 119.765266 274.462574 95.348398 285.739237 85.139339 C297.015900 74.930279 314.060902 75.485109 329.228274 76.642199 C335.153451 65.326689 332.040020 51.667462 329.958565 39.065238 C327.877109 26.463015 327.766187 11.587500 337.422377 3.226491 C347.078568 -5.134518 367.158904 4.070399 362.145757 15.818456 C347.639507 49.813121 381.979529 93.346053 418.417585 87.154393 C430.011192 96.713546 419.259086 115.367977 407.492923 124.713914 C395.726759 134.059852 381.214185 147.457706 387.434773 161.135916 C393.603491 174.700073 392.431755 191.348291 384.423915 203.914673 C409.758772 207.056878 435.093630 210.199083 460.428487 213.341288 C474.995137 215.147944 493.120295 220.267037 495.046364 234.818380 C498.608108 261.727166 446.096561 261.283650 439.695305 287.661534 C435.300477 305.771458 395.098549 295.387012 395.864296 314.006827 C456.549224 316.852116 516.787439 329.037560 573.807001 350.002429 C582.353608 353.144833 591.365602 356.901916 596.401346 364.488777 C607.102056 380.610485 592.226946 403.226751 573.840269 409.255412 C555.453591 415.284074 535.517210 410.955807 516.171925 410.537940 C484.882835 409.862081 453.461381 419.991201 428.457853 438.813727 C443.769052 466.312680 416.106919 505.998805 385.008577 501.149251 C385.085375 512.661572 385.162173 524.173894 385.238972 535.686215 C400.471050 533.908894 416.765406 532.310980 430.373528 539.381632 C443.981649 546.452285 452.171176 565.860095 442.356909 577.643781 C455.288517 575.119866 468.924388 572.634325 481.404414 576.858732 C493.884439 581.083140 504.263236 594.584655 500.206196 607.120088 C564.663247 609.610392 629.120299 612.100696 693.577351 614.591000 C713.377569 615.355984 736.657871 618.134500 746.355466 635.414272 C757.410798 655.113342 741.134248 681.083997 719.860423 688.679921 C698.586598 696.275845 675.138393 691.131939 653.094048 686.200351 C631.049704 681.268762 607.317693 676.738285 586.451451 685.391242 C590.524221 711.375428 558.468321 727.497632 532.278892 729.922330 C506.089463 732.347028 474.777770 732.369915 460.390302 754.387320 C453.027400 765.654904 439.250023 772.393172 425.835549 771.287430 C454.829610 777.965907 488.239587 788.376231 498.331550 816.365691 C522.658371 847.592883 502.677646 901.660849 463.890176 909.564261 C457.445323 910.877479 449.255644 912.384615 447.785146 918.795411 C442.764169 940.685282 419.056048 956.473681 396.922645 952.667262 C393.555256 992.001299 404.856597 1030.937595 409.129626 1070.183575 C413.402656 1109.429555 408.868381 1153.364753 380.530397 1180.850466 C374.322278 1186.871875 363.238244 1184.164467 357.630760 1177.580074 C352.023276 1170.995681 350.456015 1161.979529 349.168915 1153.427250 C338.059710 1079.610793 332.168578 1005.009528 331.554028 930.364328 C294.877955 939.294417 253.924053 927.923191 227.102359 901.362365 C215.978747 890.346941 206.889620 875.805402 207.561698 860.164986 C208.233775 844.524569 221.947113 829.038147 237.477195 831.010672 C205.387919 830.540878 173.298643 830.071084 141.209367 829.601289 C119.934520 829.289823 98.244644 828.909438 78.111896 822.025501 C57.979149 815.141564 39.294262 800.543045 33.070433 780.196545 C29.068070 767.112295 31.608860 750.825650 42.973970 743.206548 C48.287092 739.644663 54.773947 738.403600 61.063898 737.240498 C107.007892 728.744793 152.951887 720.249089 198.895881 711.753384 C182.773044 707.854275 180.695171 683.308138 191.941067 671.114747 C203.186963 658.921357 221.035738 656.019969 237.476942 653.820933 C265.453896 650.078974 293.430849 646.337014 321.407802 642.595054 C250.087578 641.659079 178.676570 647.777337 108.554981 660.831577 C83.103924 665.569693 56.088988 671.097564 31.976749 661.673873 C7.864509 652.250181 -9.362684 620.820980 5.569748 599.673202 C15.013464 586.298718 32.746372 582.295514 48.842450 579.299371 C85.863755 572.408184 122.885060 565.516997 159.906364 558.625809 C153.173186 552.765412 154.920012 541.135896 161.177448 534.770014 C167.434883 528.404132 176.585274 525.998868 185.300381 524.068360 C232.106313 513.700260 280.260830 509.436907 328.160297 511.420284 C330.411665 498.608057 332.588309 484.990761 327.693712 472.938180 C322.799115 460.885598 307.918608 451.934952 296.465739 458.103710 C278.328097 467.873030 253.469152 455.094708 247.366045 435.418181 C241.262939 415.741653 251.480411 393.433410 268.284997 381.516215 C285.089584 369.599021 307.006468 366.803304 327.437994 369.442693 C325.896016 337.864204 324.354038 306.285715 322.812059 274.707226 C310.750246 284.572136 292.919675 273.114402 283.640883 260.596103 C274.362091 248.077804 264.453621 232.294431 248.871769 232.195993 C221.854301 232.025312 194.836832 231.854630 167.819364 231.683949 C155.407097 231.605536 142.502874 231.416345 131.370678 225.925924 C120.238481 220.435503 111.499002 207.965368 114.485998 195.917614 C118.588263 179.371530 139.541560 174.724118 156.547637 173.543087 C213.267598 169.604022 270.214108 168.929511 327.011456 171.524006 z"/></svg>